<?xml version="1.0" encoding="UTF-8"?>
<svg xmlns="http://www.w3.org/2000/svg" version="1.1" xmlns:xlink="http://www.w3.org/1999/xlink" viewBox="0 0 336.2553 428.1702">
  <defs>
    <style>
      .cls-1 {
        fill: #ffede1;
      }

      .cls-1, .cls-2, .cls-3, .cls-4, .cls-5, .cls-6, .cls-7, .cls-8, .cls-9, .cls-10, .cls-11, .cls-12, .cls-13, .cls-14, .cls-15, .cls-16, .cls-17, .cls-18, .cls-19, .cls-20, .cls-21, .cls-22, .cls-23, .cls-24, .cls-25, .cls-26, .cls-27, .cls-28, .cls-29, .cls-30 {
        stroke-width: 0px;
      }

      .cls-2 {
        fill: url(#linear-gradient);
      }

      .cls-3 {
        fill: #67654c;
      }

      .cls-4 {
        fill: url(#radial-gradient-8);
      }

      .cls-5 {
        fill: url(#radial-gradient-13);
      }

      .cls-6 {
        fill: url(#radial-gradient-12);
      }

      .cls-7 {
        fill: none;
      }

      .cls-8 {
        fill: #b5997e;
      }

      .cls-9 {
        fill: #f8f0e8;
      }

      .cls-10 {
        fill: url(#linear-gradient-2);
      }

      .cls-11 {
        fill: #7a765b;
      }

      .cls-31 {
        fill: #37251e;
        font-family: VictorianBritania, VictorianBritania;
        font-size: 150px;
      }

      .cls-12 {
        fill: #f0d3d1;
      }

      .cls-13 {
        fill: url(#radial-gradient-2);
      }

      .cls-14 {
        fill: url(#radial-gradient-7);
      }

      .cls-15 {
        fill: url(#linear-gradient-3);
      }

      .cls-16 {
        fill: url(#radial-gradient-5);
      }

      .cls-17 {
        fill: url(#radial-gradient);
      }

      .cls-18 {
        fill: #b9874d;
      }

      .cls-19 {
        fill: url(#radial-gradient-14);
      }

      .cls-20 {
        fill: #fac3bc;
      }

      .cls-21 {
        fill: url(#radial-gradient-10);
      }

      .cls-22 {
        fill: #c5a88b;
      }

      .cls-32 {
        display: none;
      }

      .cls-23 {
        fill: url(#radial-gradient-6);
      }

      .cls-24 {
        fill: url(#radial-gradient-15);
      }

      .cls-25 {
        fill: url(#radial-gradient-9);
      }

      .cls-26 {
        fill: url(#radial-gradient-3);
      }

      .cls-27 {
        fill: url(#radial-gradient-11);
      }

      .cls-28 {
        fill: #f3dad5;
      }

      .cls-29 {
        fill: url(#radial-gradient-4);
      }

      .cls-30 {
        fill: #dbba99;
      }
    </style>
    <radialGradient id="radial-gradient" cx="170.4248" cy="60.1794" fx="170.4248" fy="60.1794" r="25.793" gradientUnits="userSpaceOnUse">
      <stop offset=".0102" stop-color="#efccd1"/>
      <stop offset=".1339" stop-color="#e7c5c9"/>
      <stop offset=".4213" stop-color="#dbbcbd"/>
      <stop offset=".7036" stop-color="#d7b9ba"/>
    </radialGradient>
    <radialGradient id="radial-gradient-2" cx="143.9491" cy="81.7451" fx="143.9491" fy="81.7451" r="27.8338" xlink:href="#radial-gradient"/>
    <linearGradient id="linear-gradient" x1="188.996" y1="65.42" x2="227.5579" y2="65.42" gradientUnits="userSpaceOnUse">
      <stop offset="0" stop-color="#e5b8bf"/>
      <stop offset=".4615" stop-color="#e6bbc1"/>
      <stop offset=".8484" stop-color="#ecc5c8"/>
      <stop offset="1" stop-color="#f0cccd"/>
    </linearGradient>
    <radialGradient id="radial-gradient-3" cx="217.3594" cy="77.8367" fx="217.3594" fy="77.8367" r="27.134" gradientUnits="userSpaceOnUse">
      <stop offset="0" stop-color="#f0cccd"/>
      <stop offset=".6449" stop-color="#f2dad5"/>
    </radialGradient>
    <radialGradient id="radial-gradient-4" cx="140.893" cy="107.0169" fx="140.893" fy="107.0169" r="30.9793" xlink:href="#radial-gradient-3"/>
    <radialGradient id="radial-gradient-5" cx="180.2165" cy="97.3914" fx="180.2165" fy="97.3914" r="37.03" gradientUnits="userSpaceOnUse">
      <stop offset="0" stop-color="#f2dad5"/>
      <stop offset=".2713" stop-color="#f2ded7"/>
      <stop offset="1" stop-color="#f3e1d9"/>
    </radialGradient>
    <linearGradient id="linear-gradient-2" x1="219.5393" y1="132.4892" x2="264.0871" y2="132.4892" xlink:href="#linear-gradient"/>
    <radialGradient id="radial-gradient-6" cx="261.6849" cy="137.5174" fx="261.6849" fy="137.5174" r="32.917" gradientUnits="userSpaceOnUse">
      <stop offset="0" stop-color="#f2dad5"/>
      <stop offset=".4977" stop-color="#f0cece"/>
      <stop offset=".9955" stop-color="#f0cacc"/>
    </radialGradient>
    <radialGradient id="radial-gradient-7" cx="160.4055" cy="332.0763" fx="222.5436" fy="332.0763" r="62.2175" gradientUnits="userSpaceOnUse">
      <stop offset="0" stop-color="#dab7b9"/>
      <stop offset="1" stop-color="#dab6b9"/>
    </radialGradient>
    <radialGradient id="radial-gradient-8" cx="216.1461" cy="316.0424" fx="190.201" fy="294.3356" r="33.828" gradientUnits="userSpaceOnUse">
      <stop offset="0" stop-color="#f2dad5"/>
      <stop offset=".3635" stop-color="#f1d4d1"/>
      <stop offset=".9955" stop-color="#f1d0cf"/>
    </radialGradient>
    <radialGradient id="radial-gradient-9" cx="231.3309" cy="279.5535" fx="205.4256" fy="290.7903" r="28.2374" gradientUnits="userSpaceOnUse">
      <stop offset="0" stop-color="#f2dad5"/>
      <stop offset=".2877" stop-color="#f2d6d2"/>
      <stop offset=".9955" stop-color="#f2d2d0"/>
    </radialGradient>
    <radialGradient id="radial-gradient-10" cx="199.9098" cy="265.4539" fx="184.9822" fy="298.3159" r="36.0935" gradientUnits="userSpaceOnUse">
      <stop offset="0" stop-color="#dab6b9"/>
      <stop offset=".4664" stop-color="#e3c0c3"/>
      <stop offset=".9651" stop-color="#e7c5c7"/>
    </radialGradient>
    <radialGradient id="radial-gradient-11" cx="158.2673" cy="248.9787" fx="144.4336" fy="326.7211" r="78.9635" xlink:href="#radial-gradient"/>
    <linearGradient id="linear-gradient-3" x1="76.6756" y1="231.3457" x2="124.2685" y2="257.9669" xlink:href="#linear-gradient"/>
    <radialGradient id="radial-gradient-12" cx="113.6029" cy="298.8343" fx="141.0505" fy="291.1781" r="28.4953" xlink:href="#radial-gradient-6"/>
    <radialGradient id="radial-gradient-13" cx="122.9857" cy="268.4572" fx="158.0353" fy="289.2212" r="79.058" xlink:href="#radial-gradient-3"/>
    <radialGradient id="radial-gradient-14" cx="168.3652" cy="296.1411" fx="168.3652" fy="296.1411" r="1.4993" gradientUnits="userSpaceOnUse">
      <stop offset="0" stop-color="#f2dad5"/>
      <stop offset=".1458" stop-color="#f2dad5"/>
      <stop offset=".9955" stop-color="#f2dad5"/>
    </radialGradient>
    <radialGradient id="radial-gradient-15" cx="178.3013" cy="281.4508" fx="79.192" fy="310.3455" r="103.2354" xlink:href="#radial-gradient-14"/>
  </defs>
  <g id="Layer_8" data-name="Layer 8">
    <path class="cls-8" d="M202.2696,207.239c3.4665-5.0658,7.0183-10.0732,10.6534-15.0194,9.1614-12.4656,19.5449-25.0682,33.966-30.6679.4238-.1646.8792-.3251,1.3237-.2301.9335.1997,1.2814,1.4601.8971,2.334s-1.2302,1.4376-2.0258,1.9651c-21.8652,14.4954-36.5639,37.2359-52.2341,58.2752-.9198,1.235-2.0146,2.5683-3.5437,2.7504,1.4421-5.2256,3.9743-10.1477,7.3873-14.3593-.2803.3504-.2007,1.6964-.271,2.1907.7315-2.6606,2.3058-4.9862,3.8471-7.2386Z"/>
    <path class="cls-8" d="M196.6847,187.878c-.1643-16.3954-6.8327-31.9328-10.3875-47.939-.1981-.8921-.2015-2.1247.6752-2.3826.6414-.1887,1.2575.3411,1.6828.8569,1.9959,2.4199,3.0691,5.4504,4.0762,8.4212,6.9004,20.3559,12.4938,42.4771,6.4801,63.1123-.3686,1.2646-9.5376,23.5474-10.4373,24.5095-1.3143,1.4054,5.084-19.2927,4.4142-21.2058-.4729-1.3507,1.3391-5.7797,1.6127-7.276,1.0917-5.9714,1.9446-12.0123,1.8836-18.0965Z"/>
    <path class="cls-17" d="M149.4482,65.7875c-2.6451-7.0671-3.1768-15.1819-.0829-22.0644,3.0939-6.8824,10.2581-12.1296,17.7909-11.6851.9937,2.547,2.843,4.7516,5.1783,6.1733,1.9528,1.1888,4.1951,1.8262,6.1851,2.9516,4.4417,2.5118,7.194,7.1738,9.3653,11.7915,3.2419,6.8943,5.6819,14.3226,5.7158,21.941.013,2.9182-.3797,5.9779-2.0642,8.3608-2.5124,3.5542-7.2367,4.7396-11.582,4.9902-6.9121.3987-12.9316-.2122-17.8658-5.0646-5.3454-5.2569-9.9526-10.2125-12.6406-17.3943Z"/>
    <path class="cls-13" d="M145.8208,52.2639c-7.6376-.3398-15.9181-.5004-22.1405,3.9415-2.1064,1.5037-3.8928,3.5302-4.815,5.9483-.7363,1.9306-.9006,4.0385-.7973,6.1021.2298,4.5873,1.7312,9.0064,3.3105,13.3193,3.1643,8.641,6.9213,17.4653,13.8165,23.5592s17.773,8.6185,25.4083,3.4822c4.2186-2.8379,6.8729-7.5802,8.121-12.509s1.2263-10.0829,1.0404-15.1638c-.1561-4.266-.4259-8.5514-1.3811-12.7121-.4484-1.9534-1.0831-3.9386-2.418-5.434-2.2715-2.5445-5.8983-5.5402-8.6071-7.6683-3.197-2.5116-7.6353-2.6918-11.5379-2.8655Z"/>
    <path class="cls-2" d="M215.3247,76.5405c7.0235-3.6721,11.8461-11.2339,12.2135-19.1509.2288-4.9293-1.5156-10.3419-5.768-12.8456-2.7729-1.6326-6.14-1.7914-9.3557-1.908-.2638,2.5021-2.1008,4.5825-4.1871,5.9886s-4.4694,2.3081-6.6336,3.5911c-5.7073,3.3835-9.6197,9.3406-11.3667,15.7413-1.747,6.4007-1.4776,13.2189-.173,19.7242,4.021.6476,8.1922.782,12.1668-.1064,2.1911-.4898,4.3709-1.2303,6.1694-2.5744,1.4147-1.0573,2.541-2.4475,3.6186-3.8469,1.562-2.0285,2.2724-2.2751,3.3158-4.613Z"/>
    <path class="cls-26" d="M202.3645,69.1874c3.9665-6.8138,12.5179-9.4541,17.8469-15.2647,2.8023-3.0557,5.4714-7.3623,9.6105-7.1225,1.8451.1069,3.4888,1.172,4.9383,2.3186,2.3351,1.8473,4.5319,4.195,5.0382,7.1291.4454,2.5812-.4874,5.1851-1.4935,7.6035-6.5732,15.7992-17.0423,29.9607-30.2196,40.8777-1.8433,1.5271-3.7929,3.021-6.077,3.7371-4.3814,1.3736-8.7431-.7093-6.6709-5.3693,1.4557-3.2736,3.0667-5.7689,3.1984-9.4438.2886-8.0545-.4168-17.1876,3.8287-24.4657Z"/>
    <path class="cls-29" d="M144.6638,88.6024c-8.2615-1.3849-16.9077-1.7405-24.8678.8685-7.9601,2.609-15.1525,8.5917-17.534,16.6228-.6081,2.0506-.8908,4.2805-.2278,6.3139,1.5073,4.6231,7.0407,6.4239,11.8648,7.034,7.4835.9464,15.0602.6296,22.6021.4971,3.1265-.0549,6.3191-.0683,9.2912.9038,2.2616.7397,4.301,2.0206,6.4575,3.0264,6.7198,3.1342,14.6864,3.4879,21.6575.9618,1.294-.4689,2.5804-1.0494,3.5837-1.9917,1.311-1.2313,2.0278-2.9863,2.3455-4.7566,3.3048-18.4147-21.8177-27.2413-35.1729-29.4801Z"/>
    <path class="cls-16" d="M162.9612,120.171c-5.1413-10.3016-7.0553-21.9867-7.0075-33.4998.0508-12.2218,2.5465-25.0654,10.5501-34.302.407-.4697.8458-.9421,1.4184-1.1837.6262-.2642,1.3354-.2201,2.0107-.1429,7.3534.8407,13.8917,4.9939,19.7457,9.5228,4.0513,3.1342,7.9967,6.593,10.5511,11.0328,2.8515,4.9563,3.7671,10.7869,4.0988,16.496.7643,13.1576-1.3752,26.4642-6.1298,38.7515-1.3868,3.5839-5.2653,15.8714-9.4398,16.8721-3.7444.8976-11.4641-5.8295-14.0694-8.1293-4.8699-4.2991-8.8311-9.6123-11.7283-15.4174Z"/>
    <path class="cls-3" d="M197.9818,125.0763c-.3227-6.7101-.8106-13.6912,1.7524-19.9009,3.9424-9.552,14.3896-15.0501,24.6391-16.3657,5.8541-.7514,12.5433-.7159,16.5323-5.066-1.789,19.1459-14.2479,35.4515-26.9662,49.8741-6.4585,7.324-13.525,15.4975-13.3829,25.2605.0465,3.1931-1.9441,3.3741-2.7267.6076-.8654-3.0595.3654-8.0578.4399-11.2776.1784-7.7104.0826-15.4271-.2879-23.132Z"/>
    <path class="cls-3" d="M191.2861,162.2967c-3.5584-1.3507-7.4352-1.5304-11.1752-2.2371-6.8136-1.2873-13.2078-4.3361-20.0419-5.5099-6.8341-1.1738-14.7886.0325-18.9619,5.5703-.9301,1.2342-1.6534,2.7982-1.2696,4.2952.6489,2.5314,3.8146,3.288,6.4117,3.5785,7.2917.8157,14.7951,1.6166,21.8671-.3379,4.2325-1.1697,8.2119-3.3061,12.5664-3.8727,5.3418-.695,10.9601,1.1821,14.8124,4.9495.8199.8016,1.5183,1.372,2.6044,1.2499.9289-3.4273-4.1186-6.6631-6.8134-7.686Z"/>
    <path class="cls-10" d="M255.2039,97.5302c-4.0247-1.6524-8.7637-.6994-12.481,1.561s-6.5748,5.6806-9.1482,9.1886c-3.3161,4.5205-6.2839,9.2965-8.8685,14.2716-2.7253,5.2462-5.0631,10.887-5.1635,16.798-.1629,9.5995,5.4932,18.2074,10.9292,26.1211.6727.9794,1.3976,2.0037,2.4784,2.4973,1.9586.8946,4.2182-.2784,5.927-1.5885,5.5139-4.2274,9.4444-10.1305,13.5222-15.7559,5.7883-7.9852,12.3971-16.6514,11.6259-26.4837-.4321-5.5088-2.6806-10.4448-2.7357-16.0077-.0441-4.4599-1.5633-8.7452-6.0858-10.6019Z"/>
    <path class="cls-23" d="M234.5377,162.5528c-.4464-1.5677-.8924-3.136-1.1913-4.7448-1.1465-6.1708-1.0381-12.565.2268-18.7092,2.5183-12.2319,9.7268-23.437,19.8141-30.7996,8.7198-6.3645,20.8584-9.7353,30.3262-4.5485,3.66,2.0051,6.8055,5.5185,7.084,9.6825.396,5.921-4.842,10.7268-6.0485,16.5372-.5113,2.4625-.2766,5.0318-.7662,7.4987-1.2322,6.2083-6.7666,10.6389-12.4412,13.4427-5.6745,2.8037-11.9171,4.5989-16.99,8.384-3.1663,2.3625-13.4964,17.5595-17.6251,13.9894-1.2204-1.0553-.9882-5.0115-1.292-6.4864-.2954-1.4341-.6962-2.8398-1.0967-4.2459Z"/>
    <path class="cls-11" d="M202.5126,108.7734c.4654-1.7888.9941-3.5898,1.9674-5.1611,1.2043-1.9442,3.0226-3.428,4.9109-4.7181,6.798-4.6445,14.7771-7.1836,22.6284-9.6618-.332,2.2113-1.2598,4.2902-2.3319,6.2525-7.9001,14.246-22.2172,23.3862-29.619,38.0407-.3774-8.4944.2795-16.4327,2.4441-24.7521Z"/>
    <path class="cls-1" d="M226.4228,126.9823c1.5406-3.6816,3.7733-7.0292,6.1-10.2717,4.9282-6.8679,10.6559-13.6252,18.4301-16.9443-9.4281,6.5813-16.6592,16.2552-20.3024,27.1606-3.5757,10.7034-2.8274,20.8136-.8256,31.6736-2.8939.7798-5.3066-12.2314-5.5731-14.4072-.7109-5.8034-.095-11.7961,2.171-17.2111Z"/>
    <path class="cls-1" d="M241.5942,127.5962c4.6632-9.8137,13.0045-18.1847,23.4152-21.2948-8.4884,6.1721-16.325,13.6021-21.2137,22.8891-2.3428,4.4505-3.9582,9.2436-5.144,14.1212-1.0703,4.4029-1.1368,9.3659-2.5672,13.6148-.5178-9.8628,1.2629-20.3926,5.5097-29.3302Z"/>
    <path class="cls-1" d="M158.5308,83.5904c.4238-7.9395,2.2859-15.9544,6.5634-22.6565,1.636-2.5634,3.7737-5.0244,6.6728-5.9425-2.2282,3.2028-4.0677,6.6758-5.465,10.3186-1.8079,4.713-2.8679,9.6769-3.7679,14.6439-.9488,5.2367-1.7275,10.5046-2.3088,15.7946-.3483,3.1704-.224,6.1816-.1112,9.3269-1.5647-1.1924-1.2543-7.973-1.4062-10.1124-.2687-3.7837-.3794-7.5827-.1771-11.3727Z"/>
    <path class="cls-1" d="M163.371,33.67c-5.6313,5.2302-7.3291,13.3116-10.7191,20.209-.0737.15-.1562.3081-.3014.3908-.2327.1326-.525.0218-.7607-.1053-3.8552-2.0779-.162-8.3728,1.5615-11.2035,2.4263-3.9849,5.9907-7.2975,10.2197-9.2911Z"/>
    <path class="cls-1" d="M119.8963,66.7537c.4236-4.0426,2.3795-8.0264,5.7151-10.3494,4.041-2.8143,9.3943-2.8456,14.2552-2.0572-4.3143,1.9748-8.8318,4.1138-11.5694,7.9891-1.4565,2.0618-2.3041,4.4815-3.121,6.87-.6192,1.8104-1.135,3.6395-1.6913,5.4677-.4672,1.5352-.2585,2.3725-1.81,1.4326-2.2999-1.3933-2.0084-7.1595-1.7786-9.3528Z"/>
    <path class="cls-1" d="M212.3975,48.1139c-2.8467,1.1722-6.0929,5.6538-8.3797,7.7759-.8021.7443-6.341,6.8888-6.9549,4.2821-.3481-1.4783,5.7327-6.0939,6.8207-6.9508,2.6067-2.0531,5.4725-3.7792,8.5139-5.1073Z"/>
    <path class="cls-1" d="M213.6304,62.4176c4.3478-2.9616,8.929-6.2157,10.852-11.1124-.3049,3.2652-1.1194,6.5589-2.9615,9.2721-1.5172,2.2346-3.6504,3.9661-5.7516,5.6633-1.437,1.1607-10.3301,9.1093-11.7454,5.7285-1.1814-2.8222,7.7401-8.2801,9.6066-9.5515Z"/>
  </g>
  <g id="Layer_1" data-name="Layer 1" class="cls-32">
    <text class="cls-31" transform="translate(30.3643 156.8175)"><tspan x="0" y="0">Magnoliac</tspan></text>
    <path class="cls-7" d="M116.6938,70.5857c3.213-4.7607,8.7438-7.8748,14.4805-8.1531-1.0344.8563-2.2987,1.3739-3.5132,1.9468-5.3968,2.5457-10.3721,6.7392-12.1643,12.4308-.4342,1.379-.672,2.8121-.8539,4.2463-.2454,1.9351-.334,3.853-.1674,5.7935-1.7727-5.3913-.9624-11.5515,2.2183-16.2643Z"/>
    <path class="cls-7" d="M111.2544,77.1044c.0568-2.0191.3433-4.0417.9869-5.9563,1.5808-4.7025,5.1755-8.4251,8.8538-11.7541-3.0858.8978-5.4822,3.3033-7.5415,5.7706-1.9847,2.378-3.8286,4.9661-4.6996,7.9385s-.636,6.4078,1.2506,8.8643c.3261.4246,1.0767,1.6928,1.5352,1.9024.8472.3873.2324-.8681.1239-1.323-.4244-1.7782-.5606-3.6181-.5093-5.4425Z"/>
  </g>
  <g id="Layer_3" data-name="Layer 3" class="cls-32">
    <image width="580" height="700" transform="translate(9.7505 27.4181) scale(.2222)" xlink:href="Magnoliac references/Magnoliac references/Logo/magnolia ornament.png"/>
  </g>
  <g id="Layer_6" data-name="Layer 6">
    <path class="cls-3" d="M144.2721,306.3424c.569-1.1984,2.437-.19,2.9896,1.0161,2.1318,4.6524-1.0136,10.3549-5.5002,12.8165-4.4866,2.4617-9.855,2.5217-14.9724,2.484-15.3194-.113-31.1532-.4661-45.3108,5.3871-1.8106.7486-3.6432,1.6092-5.602,1.6522s-4.1067-1.0017-4.6237-2.8915c-.6029-2.204,1.152-4.296,2.7951-5.8839,7.8928-7.6276,16.5522-14.6503,26.5066-19.2748,9.9544-4.6245,21.3455-6.7205,32.0491-4.2894,2.6997.6132,5.5421,2.0393,7.2527,4.2161,1.4498,1.8449,2.1466,4.171,4.416,4.7675Z"/>
    <path class="cls-3" d="M110.9014,262.8242c.292-1.9516-1.3405-3.6073-2.8364-4.8942-9.0451-7.7807-18.5035-15.3654-29.4827-20.0353-10.9793-4.6699-23.7931-6.1593-34.8169-1.5955-6.6741,2.7631-12.2928,7.5322-17.6823,12.3418,9.8063.5267,18.8083,5.6349,26.5181,11.7178,7.7098,6.0829,14.5398,13.2528,22.5127,18.9865,4.4782,3.2204,9.4289,6.0175,14.8725,6.9079s11.468-.3919,15.304-4.3556c5.1437-5.3149,7.5864-12.9801,4.9128-19.8762-.6666,1.2649.4424-.6039.6983.8028Z"/>
    <path class="cls-3" d="M106.1055,207.5521c-.6054-.8655-1.2078-1.7976-1.2919-2.8504-.2082-2.6079,2.6525-4.294,5.1228-5.1553,16.6129-5.7926,35.6541-4.1953,51.0697,4.2841,5.2161,2.8691,10.1572,6.6342,13.0697,11.8263,2.9124,5.1921,3.4263,12.0228.1065,16.9643-1.0234,1.5233-2.3569,2.8115-3.7346,4.0238-9.9303,8.7381-22.7986,14.0765-35.9982,14.9339-11.8226.768-17.5417-7.0195-17.6618-18.2848-.1172-10.9943-4.4374-16.814-10.6822-25.7418Z"/>
    <path class="cls-3" d="M232.87,287.7065c-1.0309.2614-2.0618.5228-3.0927.7843,15.2856-5.6044,30.2952-14.9282,37.2099-29.6675,2.9896-6.3726,4.2885-13.7808,2.2699-20.5242-2.1741-7.2628-7.8178-12.8768-13.2551-18.1598-6.5163,7.8787-16.7472,12.543-26.9684,12.2951-4.3337-.1051-8.6174-1.0392-12.9518-1.1094-10.3498-.1676-20.5152,4.8267-27.2697,12.6704-.62,5.4489-1.778,11.5152-.4156,16.8273,1.5542,6.0596,5.5941,11.2548,10.4274,15.2264,4.8333,3.9716,10.4576,6.8467,16.0776,9.5945,4.7303,2.3128,9.6957,4.6063,14.9612,4.5978-.6674.0441-1.0954-.9614-.6009-1.4119s3.7143-1.7833,3.6084-1.1229Z"/>
    <path class="cls-3" d="M228.8165,319.7249c3.7057-.292,6.1779,3.5209,8.8422,6.113,2.9086,2.8299,6.7474,4.4762,10.5556,5.8784,12.0683,4.4438,26.2898,6.8328,37.2426.0929-.201-4.2571-4.4648-6.9176-7.674-9.7219-3.0539-2.6685-5.4728-6.0589-7.0026-9.8148-1.278-3.1377-1.9394-6.5082-3.3372-9.5944-3.3955-7.4975-10.9339-12.5652-18.9336-14.5008s-16.4324-1.0816-24.4603.7335c-1.1905,3.2343-2.2178,6.1346-2.6059,9.5591-.1949,1.7202-.3898,3.4617-.1568,5.1772.1962,1.4447.691,2.8312,1.2351,4.1839,1.9091,4.7458,4.4683,9.2297,7.5835,13.2871.0912-.2999-.2682-.6258-.5578-.5056s-1.0076-1.0349-.7308-.8877Z"/>
    <path class="cls-3" d="M192.2227,330.8729c10.0201-1.0154,19.7374,5.9419,23.9589,15.0859,4.2215,9.144,3.6731,19.9091.6908,29.5289-1.3858,4.4703-3.2976,8.8283-6.1464,12.5415-2.2786,2.97-5.1389,5.4918-8.3709,7.3804-.5688.3324-1.1977.6556-1.852.5792-1.2043-.1407-1.8151-1.4676-2.3772-2.5419-2.7571-5.2697-8.8244-7.6656-13.9842-10.6233-9.3153-5.3396-16.8303-13.7596-21.0811-23.6195-1.8908-4.386-3.1606-9.203-2.4599-13.9275,1.585-10.6871,13.2593-17.7043,24.0498-17.1639,3.9025.1954,4.5476.2866,7.5722,2.7604Z"/>
    <path class="cls-11" d="M58.3106,237.6602c8.96-.1684,18.0271,2.5558,25.1261,8.0253,1.2951.9978,2.6269,2.2954,2.6286,3.9303-8.4821-2.4634-17.3006-3.5216-26.1076-3.8587-4.3371-.166-8.6794-.1551-13.018-.0579-3.4934.0782-9.7769,1.5246-12.8725.1993.1294-2.7631,8.7707-5.2481,11.0975-5.9984,4.2457-1.3691,8.6828-2.1559,13.146-2.2398Z"/>
    <path class="cls-11" d="M76.8546,252.8792c4.5032,2.0669,8.6124,4.8909,12.6447,7.7704,5.3847,3.8451,10.9676,8.199,13.0982,14.4632,1.0294,3.0267.8463,6.9864-1.8691,8.6737-1.4057.8735-3.1621.918-4.8146.8257-9.5153-.5314-18.7638-4.8807-25.2418-11.8707-2.8394-3.0638-5.1443-6.5836-7.8995-9.7233-3.1505-3.5903-6.8965-6.6487-11.0219-9.0534-2.0992-1.2236-4.2962-2.2788-6.5653-3.1481-1.6082-.6161-5.4753-1.0781-6.0991-2.463,2.0033-1.2181,6.6979-.4929,9.1319-.4856,3.2829.0099,6.5685.1097,9.8394.402,6.4519.5766,12.8847,1.8954,18.797,4.6091Z"/>
    <path class="cls-11" d="M88.7859,312.0077c5.4585-3.643,11.4121-7.0189,17.9561-7.5123-4.5961.3466-10.8353,4.5708-14.8685,6.6895-4.2538,2.2347-9.6464,4.6156-13.0511,8.0546,3.2622-2.4968,6.5448-4.9502,9.9634-7.2318Z"/>
    <path class="cls-11" d="M100.0649,310.4882c9.3742-3.0888,19.8402-3.5678,29.0131.0756,1.9769.7852,4.2391,2.6038,3.4144,4.5646-.2901.6897-.917,1.175-1.5513,1.572-3.3097,2.0715-7.3438,2.5445-11.2312,2.9095-3.9627.3721-7.9311.6846-11.9033.9373-5.5192.3511-11.0521.5916-16.5459,1.2544-2.7754.3348-5.5418.768-8.2693,1.3855-2.1376.4839-5.7505,2.3075-7.6359,1.8662,5.6442-6.7045,16.5116-11.864,24.7093-14.5652Z"/>
    <path class="cls-11" d="M185.6533,346.2232c3.7602,1.9135,6.9468,4.8098,9.6894,8.0158,4.3804,5.1204,7.7823,11.2581,8.744,17.9275s-.7513,13.8895-5.3925,18.7747c-1.4308-4.5363-5.5452-7.6165-9.4802-10.2887-4.8169-3.2711-9.7558-6.4319-13.9669-10.453-4.211-4.0211-7.7043-9.0327-8.8576-14.7399,4.7365-3.8221,9.7537-6.5634,15.4846-8.6128,1.4525-.5194,2.574.3394,3.7792-.6235Z"/>
    <path class="cls-11" d="M204.4601,363.3191c-2.9-6.8632-8.7221-11.9855-14.3585-16.8583,4.5939-1.907,9.5667-2.8962,14.5407-2.8925,1.4369.0011,2.9522.1086,4.1503.9019,1.7269,1.1435,2.3228,3.3615,2.7433,5.3895,1.5042,7.2554,2.4474,14.7383,1.3818,22.0709-.8149,5.6076-3.1078,13.4352-7.8372,17.0283-2.0982-1.6784,1.0045-9.0247,1.2507-11.4733.4817-4.79.0141-9.7048-1.8711-14.1666Z"/>
    <path class="cls-11" d="M250.5036,296.5779c4.4272,1.3357,8.6655,3.7674,11.3488,7.5336,3.5751,5.0178,3.9956,11.7319,7.4117,16.8592,2.905,4.3602,7.67,7.1092,12.4807,9.1845-6.8241,4.7964-15.9621,4.4748-24.1704,2.9919-13.3777-2.4168-27.1457-8.1022-34.4366-19.5759-2.1644-3.4061-3.6996-7.6114-2.4609-11.4523,3.9126-12.1315,21.0794-8.1802,29.8267-5.5411Z"/>
    <path class="cls-11" d="M259.7564,297.6447c.5413.631,1.0609,1.3037,1.3382,2.0875-3.1999-3.3421-7.2945-5.8195-11.7399-7.1032-3.2553-.94-6.6051-.9555-9.8845-1.5982,3.0237-8.1489,17.5361,3.4079,20.2862,6.6139Z"/>
    <path class="cls-11" d="M230.8415,242.5451c8.5271-.8291,17.7548-1.7838,24.0511-7.5936,2.2547-2.0805,4.082-5.2231,3.0798-8.1226,3.4467,3.6173,7.0007,7.4119,8.4996,12.1782,1.5289,4.8619.6804,10.2915-1.708,14.7938s-6.2122,8.1298-10.5067,10.8745c-9.334,5.9655-20.816,7.8909-31.8747,7.2452-2.6285-.1535-5.3196-.4643-7.6586-1.6739-4.7158-2.439-11.8038-14.4031-7.9449-19.3544,5.0562-6.4875,16.6327-7.6248,24.0623-8.3472Z"/>
    <path class="cls-11" d="M217.3845,235.4903c4.0089-.427,8.0573-.3073,12.0761-.6287,8.66-.6927,17.1461-3.4689,24.541-8.0286-2.988,6.7955-10.0985,10.9039-17.245,12.9127s-14.6632,2.3787-21.8543,4.2209c-6.136,1.5719-11.943,4.1909-17.7732,6.6666-1.9011.8073-4.0141,1.6124-5.9775.9718-8.3079-2.7102,4.4836-9.0215,6.5059-10.0051,6.2129-3.022,12.8245-5.3745,19.7271-6.1097Z"/>
    <path class="cls-11" d="M125.1957,240.958c.3022.9072.6413,1.8573,1.3672,2.4797.7372.632,1.7502.8185,2.7162.917,5.3478.5454,10.8789-.9551,15.218-4.1282s7.4454-7.9893,8.5466-13.2509c.3712-1.7737.5172-3.6449-.0095-5.3788-.506-1.666-1.5949-3.0888-2.7454-4.3956-6.8604-7.7927-16.8541-12.5969-27.1518-13.5568-3.0837-.2874-13.7893-1.3071-12.3619,3.4046.6974,2.302,3.4427,4.9656,4.6178,7.1833,1.3477,2.5434,2.4953,5.1878,3.5363,7.8697,2.3981,6.1784,4.1737,12.5731,6.2665,18.856Z"/>
    <path class="cls-11" d="M137.2085,198.2732c9.5053,1.1266,19.0543,6.3744,22.8381,15.1666-2.8366.7128-5.8136-.5172-8.2315-2.1626s-4.5453-3.7325-7.1423-5.0778c-1.7485-.9057-3.6601-1.4479-5.5722-1.9185-4.747-1.1684-9.5935-1.9289-14.4695-2.2777-3.5919-.2569-10.8108,1.2805-13.7763-.3443,7.8458-3.1531,17.9789-4.3783,26.3538-3.3857Z"/>
  </g>
  <g id="Layer_4" data-name="Layer 4">
    <g>
      <path class="cls-14" d="M124.0813,307.2032c-2.1246,1.0282-4.1024,2.3592-5.855,3.9401-.6237.5626-1.2418,1.1936-1.4776,1.9997-.541,1.8493,1.0652,3.5417,2.2407,5.0684,2.8757,3.7348,3.6329,8.6331,4.2673,13.3039.4478,3.2967.9036,6.6691,2.4178,9.6315,2.5716,5.0314,7.7725,8.1139,12.8798,10.5313,11.2373,5.3189,23.3749,8.7509,35.7449,9.996,4.9886.5021,10.0912.6431,14.9529-.5827,4.8617-1.2258,9.5006-3.9555,12.1841-8.1908,2.7089-4.2754,3.1792-9.6618,2.3875-14.6609-1.1101-7.01-4.4731-13.4216-7.1319-20.0021-1.4586-3.61-3.0739-7.6921-6.6699-9.1852-1.4815-.6152-2.2287-4.5263-3.8326-4.5572-8.2615-.1589-9.7825-1.3348-17.986-2.325-5.1639-.6234-17.8853,3.9079-22.9082,2.5568-3.1684-.8523-6.3367-1.7045-9.5051-2.5568"/>
      <path class="cls-4" d="M216.8207,290.2372c-.2219-.749.3033-1.5593.9999-1.9129s1.5139-.356,2.2941-.3192c8.3938.3961,16.3042,4.4655,22.6114,10.0181,4.7479,4.1798,8.7886,9.3354,10.8213,15.3255,2.0327,5.9901,1.8856,12.8724-1.226,18.3797-2.9231,5.1737-8.1984,8.7348-13.8591,10.5427-5.6607,1.8079-11.7119,2.014-17.6463,1.7064-8.1874-.4244-16.4863-1.8541-23.7126-5.7263-5.5766-2.9882-10.4012-7.4197-13.6794-12.8308-2.2015-3.634-3.6932-7.6621-4.7722-11.7716-1.5962-6.0795-2.1741-13.0157,1.3343-18.231,1.9169-2.8495,6.5484-2.3472,9.947-2.8406,8.7594-1.2715,18.0365-2.2801,26.8875-2.3398Z"/>
      <path class="cls-25" d="M228.2463,260.0268c3.608-1.4987,7.613-2.3387,11.4414-1.5594,2.8153.5731,5.3789,1.9814,8.0694,2.9893,5.3732,2.0128,11.3415,2.4057,16.9322,1.1146,1.1372,5.3272-.4691,10.9533-3.3011,15.6065-2.832,4.6532-6.8093,8.4851-10.8123,12.1794-2.4953,2.3029-5.0416,4.5918-7.969,6.3123-4.6179,2.7141-10.0072,3.8966-15.3558,4.1871-5.3486.2905-10.7028-.2705-16.0299-.8306-4.539-.4773-9.0781-.9546-13.6171-1.4319"/>
      <path class="cls-21" d="M189.4359,249.0605c1.9195-1.8929,3.8759-3.8133,6.2591-5.0733,2.4134-1.276,5.145-1.81,7.8499-2.1795,5.1153-.6988,10.299-.8669,15.3862-1.7472,2.0767-.3594,4.1574-.8456,6.0346-1.8039,2.8553-1.4576,5.3356-4.0236,8.5369-4.1953.3775,3.1194,1.321,6.1378,2.2168,9.1496.6173,2.0754,1.2183,4.183,1.2913,6.347.0833,2.4671-.525,4.9106-1.356,7.2349-1.7569,4.9139-4.5419,9.4634-8.1573,13.2266-6.1388,6.3898-14.3577,10.2893-21.5321,15.4896-3.7956,2.7513-7.3422,5.8982-11.4953,8.0727-5.9069,3.0928-12.9094,4.038-19.4249,2.6221-4.8922-1.0631-9.81-3.761-11.792-8.3583-.2931-.6798-.5196-1.4165-.4332-2.1517.0896-.7622.5041-1.443.9241-2.0854,4.4221-6.7653,10.6182-12.4947,13.4858-20.0513.9935-2.618,1.6473-5.5414,3.7066-7.4389.2745.5424.4017,1.211.4788,1.7955,2.8922-2.1929,5.3505-6.22,8.0208-8.8534Z"/>
      <path class="cls-28" d="M227.338,248.4789c-.019,2.4327-1.5223,4.571-2.9633,6.531,2.8635.7587,6.1638-.9416,7.2084-3.7136.4598-1.2201.5134-2.5558.4414-3.8577-.1225-2.2153-.4805-7.8936-3.3989-8.1664-4.8809-.4563-1.2711,7.0881-1.2876,9.2067Z"/>
      <path class="cls-27" d="M177.7725,291.2938c-1.1218-2.0239-.0808-4.5163.9427-6.5915,8.0255-16.2728,15.1832-34.0306,13.0171-52.0451-1.5969-13.2803-8.457-25.855-18.7593-34.386-.9792,2.1379-1.0864,4.6612-2.4249,6.5945-1.9443,2.8083-5.7393,3.4467-9.1009,4.0519-3.5346.6363-7.0291,1.4957-10.4557,2.5714-2.3502.7378-4.7084,1.5985-6.6772,3.0789-1.611,1.2114-2.8998,2.7919-4.1715,4.3557-2.8552,3.5111-5.7464,7.0812-7.5351,11.2382-1.7887,4.157-2.3629,9.0514-.5065,13.1786,2.1036,4.6769-.2254,10.4198-1.9021,15.2662s-3.9222,9.5135-5.0764,14.5101c-1.1542,4.9966-1.097,10.5485,1.6134,14.902,3.0553,4.9075,8.8184,7.3657,14.3655,8.9926,7.859,2.3051,16.2135,3.534,24.2554,1.9834,2.3845-.4598,4.8605-1.2464,6.444-3.0876.7328-.852,1.2321-1.8858,1.9746-2.7294,1.0793-1.2263,2.6659-1.9919,4.2975-2.0737-.2273-.5869-.1077-.4095-.3006.1896Z"/>
      <path class="cls-15" d="M108.1905,275.6423c-5.4466-2.392-11.6904-2.4626-17.1399-4.8479-3.2587-1.4264-6.1096-3.6277-8.8824-5.856-3.3979-2.7307-6.7615-5.5628-9.4672-8.9807-1.4052-1.775-2.6353-3.7236-3.3231-5.8805-1.2447-3.9035-.6212-8.1583.4672-12.1082,1.0884-3.9499,2.6325-7.7929,3.2399-11.8447.0991-.6611.1838-1.3552.565-1.9044.291-.4193.7272-.7113,1.1548-.9899,4.6201-3.0094,9.4834-5.624,14.3399-8.2347,3.0247-1.626,6.4221-3.3038,9.7475-2.4467,1.4442.3722,2.724,1.1977,3.9632,2.0275,5.0518,3.3826,9.9106,7.0534,14.5448,10.9887,1.7434,1.4805,3.5001,3.0566,4.4904,5.1183,1.0173,2.1181,1.1278,4.542,1.2202,6.8899.2132,5.4171.375,11.0927-2.0083,15.9619"/>
      <path class="cls-6" d="M106.9891,278.1117c-2.8579-.2724-5.782-.389-8.5616.3293-2.7796.7183-5.4279,2.3776-6.7665,4.9174-1.5915,3.0196-1.1478,6.8046-2.764,9.811-2.1841,4.0628-7.5089,5.6333-9.7287,9.6767,3.8559.8003,7.7331,1.6069,11.4008,3.0411,4.5272,1.7702,8.6277,4.4532,12.8714,6.8239,7.0684,3.9487,14.8591,7.1131,22.9555,7.0562,8.0964-.0569,16.5334-3.8927,20.3135-11.0527,1.2899-2.4432,1.9579-5.5445.512-7.8988"/>
      <path class="cls-20" d="M156.8312,290.6206l-6.4307,2.0648c-2.4485-.3244-4.6902-1.5338-6.5193-3.1857l1.1505.4424c1.2096.4426,2.478.6786,3.7169.8851,2.1829.354,3.1564.5898,5.3098.1179-2.2713-.2065-4.5428-.4426-6.6668-1.2096-2.1534-.7963-4.1297-2.2124-5.1032-4.2477-.4426-.9146-.6489-1.888-.8554-2.8615-.6491-2.8024-1.2684-5.6342-1.298-8.4957-.0591-1.9173.177-3.8939,1.0029-5.6342.531-1.18,1.3275-2.2419,2.1535-3.2745,1.9764-2.5369,4.1002-4.9558,6.3717-7.2566-1.8584,3.5399-3.5694,7.1387-5.1328,10.7965-.6784,1.6224-1.3275,3.3039-1.3865,5.0739-.0293,1.6815.4721,3.3039,1.0326,4.8672.6489,1.8289,1.3568,3.599,2.4189,5.2214,2.3303,3.4513,6.1356,5.7818,10.236,6.6963Z"/>
      <path class="cls-28" d="M159.5746,248.5552c-.767,1.2094-1.9173,2.1534-3.0088,3.0678-2.4189,2.0059-4.7199,4.1299-6.9028,6.3423-2.2715,2.3008-4.3953,4.7197-6.3717,7.2566-.8261,1.0326-1.6226,2.0945-2.1535,3.2745-.8259,1.7403-1.0619,3.7169-1.0029,5.6342.0295,2.8615.6489,5.6933,1.298,8.4957.2065.9735.4128,1.9468.8554,2.8615.9735,2.0352,2.9499,3.4513,5.1032,4.2477,2.124.767,4.3955,1.003,6.6668,1.2096-2.1534.4719-3.1269.236-5.3098-.1179-1.2389-.2065-2.5073-.4426-3.7169-.8851l-1.1505-.4424c-.7375-.2951-1.4454-.59-2.1534-1.003-1.6815-.9735-2.6843-2.7434-3.4808-4.5132-1.9764-4.5725-2.7729-9.5871-2.9204-14.5724-.0886-2.5664,0-5.1918.6489-7.6698,1.298-5.0147,4.7788-9.1741,8.2303-13.0089,1.298-1.4454,2.5959-2.8615,4.1593-3.9529,2.065-1.4159,4.5723-2.2124,7.0798-2.2419,1.6815,0,3.5692.4426,4.4248,1.9175.7375,1.2389.4424,2.8615-.2951,4.1004Z"/>
      <path class="cls-5" d="M135.1031,284.0464c-3.5073-5.2685-3.4497-12.1156-2.5446-18.3797,1.1007-7.6186,3.269-15.2729,2.1653-22.8911-.3558-2.456-1.0787-4.918-2.5612-6.9081-1.902-2.5532-4.919-4.1143-8.0349-4.7683-3.2038-.6724-6.5894-.4559-9.6814.6193-3.8691,1.3453-7.1801,3.9685-9.9949,6.9444-2.8058,2.9664-5.215,6.3627-6.6836,10.1726-2.6904,6.9797-2.031,14.9035.3811,21.9842,2.4121,7.0807,6.462,13.4734,10.5781,19.7194,3.0856,4.6824,6.3456,9.4441,10.9934,12.5816s11.0548,4.3145,15.8669,1.4354c1.4866-.8894,2.7569-2.1174,4.2857-2.9323,1.5597-.8314,3.3175-1.1964,4.9931-1.7587,1.6756-.5623,3.3611-1.3936,4.3536-2.856.9224-1.3591,1.1204-3.7024-.3217-4.7857-1.3523,2.2311-5.5157-1.0828-7.1589-2.1047-2.5625-1.5937-4.9502-3.5401-6.636-6.0724Z"/>
      <g>
        <path class="cls-19" d="M169.3566,296.5643c-.6282-.3301-1.2795-.6264-1.9827-.8464.6401.3228,1.305.6001,1.9827.8464Z"/>
        <path class="cls-24" d="M169.3566,296.5643c-1.6632-.5904-2.5115.3557-4.216-.1019-3.9881-1.0705-7.5675-2.9575-11.1563-4.9999-4.9743-2.8307-11.5891-2.4671-16.2231.8916-3.9795-3.1369-8.909-5.0518-13.9624-5.4238-2.1116-.1555-4.3205-.0273-6.1953.957-1.8747.9843-3.3301,2.9901-3.1458,5.0996.1418,1.6227,1.1803,3.0137,2.239,4.2517,6.6092,7.7281,15.4971,13.2384,24.8606,17.2049,9.0072,3.8157,19.0936,6.3141,28.554,3.826,2.5544-.672,5.0634-1.7292,7.0278-3.4952,1.8425-1.6567,3.1415-4.0059,3.2233-6.4695,1.1096,1.2157,2.3493,2.2148,3.8785,2.6576,2.3467.6794,4.8376.6456,7.2748.4761,11.116-.7727,22.178-4.3817,30.965-11.2339,8.7869-6.852,15.1211-17.0885,16.2652-28.1722.3385-3.2794.2335-6.5906.5254-9.8745.2856-3.215.9529-6.396,1.9834-9.4549.4835-1.4353,1.0557-2.9139.8703-4.417-.3052-2.4745-2.7106-4.3192-5.1876-4.6029-2.477-.2839-4.9434.703-7.0346,2.0604-2.9645,1.9239-5.3725,4.5815-7.6359,7.2956-4.4515,5.3383-8.482,11.0147-12.3426,16.795-2.6433,3.9578-5.2781,8.0438-9.0187,10.9865-2.5695,2.0216-5.5803,3.4342-8.11,5.5056-3.6246,2.9681-6.1857,7.2232-10.2596,9.5362-3.9546,2.2451-8.8804,2.2638-13.1794.7018"/>
      </g>
      <path class="cls-18" d="M175.2112,283.5147c-.3395-.4592-.2138-1.1916.2594-1.5113.2708-.183.6085-.2312.9341-.2603,3.2098-.2874,6.5218.8778,8.8446,3.1117,1.3865,1.3334,2.4501,3.1138,2.5087,5.0366.0357,1.1699-.2997,2.3247-.7761,3.3939-.4413.9906-1.6168,2.0584-2.435,1.3466-.7077,1.6857-1.9654,3.6937-3.7647,3.3694-.4834-.0871-.932-.3487-1.4228-.366-1.5181-.0537-2.4905,2.1517-3.9895,1.9055-.8566-.1407-1.4168-1.0599-2.2694-1.223-.582-.1113-1.1597.1545-1.7256.3305-2.1036.6544-4.5575-.0061-6.0483-1.6281-1.3347.3333-2.7178.6245-4.0775.4158-1.3597-.2087-2.7065-1.0176-3.1888-2.3059-1.8494.1773-3.7631-.7344-4.7905-2.2824-.3167-.4772-.5727-1.0272-1.0525-1.3399-.3617-.2357-.8087-.3057-1.1828-.5211-1.4577-.8395-.8523-3.2427.5425-4.183-.6174-.6417-1.2349-1.2835-1.8523-1.9252,1.3465-.6548,2.5665-1.5688,3.5732-2.6772.3991-.4394.7722-.9154,1.2651-1.2462,1.041-.6987,2.5577-.5769,3.4739.2789-.3564-.0872-.4347-.6126-.2107-.9032s.614-.3906.9776-.4398c1.8369-.2488,3.5701,1.2455,5.2135.9621,1.7747-.306,2.5808-2.684,4.3978-3.1681,1.0595-.2822,2.2097.0794,3.1008.7183s1.5659,1.5293,2.203,2.4216c1.4789,2.0714,2.8328,4.2319,4.052,6.466.3658.6703.7272,1.3734.7743,2.1356.0703,1.1369-.5953,2.2291-1.5069,2.9122s-2.0396,1.0123-3.1606,1.2148c-3.9137.7072-8.0681-.0192-11.5164-2.0007-1.2406-.7129-2.4307-1.628-3.0765-2.9048-1.0459-2.068-.1783-3.3116,1.346-4.4373,1.1216-.8283,2.1574-1.731,3.1681-2.6815"/>
      <g>
        <path class="cls-28" d="M123.6401,322.7368c-.5355,2.3263.7348,4.7796,2.5949,6.2758,1.8601,1.4962,4.2165,2.2117,6.5325,2.7903s4.6933,1.0675,6.789,2.2107c5.3064,2.8947,7.9231,9.463,13.3923,12.037,1.9471.9164,4.1145,1.2471,6.2564,1.4555,5.4261.528,10.9218.3354,16.2977-.5711,1.9219-.3241,3.8472-.7405,5.7956-.6915,3.3678.0846,6.5238,1.5419,9.7577,2.486,1.0176.2971,2.0723.5465,3.1285.4558,2.9896-.2568,5.0359-3.0306,6.6713-5.5464.3273,4.4225-2.4781,8.6341-6.1766,11.0808-3.6985,2.4468-8.1681,3.4144-12.5594,4.0322-2.6763.3765-5.3861.6416-8.08.4248-2.8806-.2319-5.6857-1.0094-8.4701-1.7832-4.0888-1.1363-8.1776-2.2725-12.2663-3.4088-2.2175-.6162-4.4411-1.2346-6.5695-2.1101-2.7884-1.147-5.3775-2.7203-7.9536-4.287-2.1151-1.2863-4.2399-2.5795-6.1306-4.1775-4.4208-3.7363-7.4086-9.1277-8.2332-14.8569"/>
        <path class="cls-9" d="M132.1387,292.6207c-2.4777-1.3198-5.3895-1.543-8.1958-1.4681-1.4015.0374-2.9135.1871-3.9621,1.1178-1.538,1.3651-1.4004,3.9362-.2543,5.6436,1.1461,1.7074,3.0235,2.754,4.8367,3.7242,6.9612,3.7248,14.0257,7.2564,21.1827,10.5895,1.9714.9181,3.9683,1.8274,6.0918,2.2966,2.2372.4943,4.5508.486,6.842.4755,2.9105-.0134,5.8211-.0268,8.7316-.0402-5.5615-.3573-11.0726-1.4902-16.3241-3.3558-2.2154-.787-4.4149-1.7212-6.2613-3.1766-1.8463-1.4554-3.3244-3.494-3.6954-5.8156-.4612-2.886-.1877-4.7124-3.0791-5.9847-2.2704-.999-3.7002-2.8276-5.9127-4.0062Z"/>
        <path class="cls-12" d="M177.6137,209.0918c4.5795,3.2334,7.8768,8.234,9.0448,13.7169.5551,2.6056.6439,5.2874.6285,7.9514-.0919,15.8578-3.8015,31.4758-8.3361,46.6717,2.5223-13.3876,2.7449-27.2054.6551-40.6673-.1724-1.1105-.3645-2.2327-.8233-3.2587-.5716-1.2782-1.5248-2.3388-2.409-3.4246-1.9661-2.4146-3.6476-5.0451-5.3243-7.6689-.2336-.3656-.4768-.7689-.4317-1.2004.0504-.4818.4405-.8456.7869-1.1841,3.2064-3.1335,4.507-8.0799,3.2564-12.3852,1.1745.3383,1.9541.7442,2.9525,1.4491Z"/>
        <path class="cls-9" d="M83.4691,235.0078c.6221,4.6878-2.1572,9.2019-2.2291,13.9303-.0894,5.8808,3.9215,10.9293,7.7215,15.4184,1.3675,1.6155,2.7478,3.2435,4.4167,4.5454-2.6641-1.7837-5.2882-3.6273-7.8695-5.5288-4.0207-2.9618-8.0019-6.1315-10.8277-10.249-2.8258-4.1175-4.3821-9.3619-3.089-14.1855.6183-2.3063,1.8164-4.3817,2.8094-6.5354.6672-1.4471,1.0657-5.1282,2.2589-6.0747,2.7503-2.1817,6.535,6.6161,6.8089,8.6792Z"/>
        <path class="cls-9" d="M97.894,303.1923c4.9596,3.0834,9.7979,6.3622,14.4997,9.826-3.6714-1.1641-7.2011-2.7743-10.4867-4.7839-2.9443-1.8008-6.2953-2.7541-9.1936-4.4848-3.0869-1.8434-1.4955-3.54-.4347-6.074,1.0568,2.5982,3.3376,4.0672,5.6153,5.5167Z"/>
        <path class="cls-9" d="M105.971,242.4695c-.3405,1.4139.2336,2.9022,1.06,4.099s1.9018,2.2028,2.7544,3.381c1.9951,2.7568,2.6428,6.2869,2.6158,9.6897s-.6697,6.7673-1.0062,10.1536c-.6879,6.9222-.084,13.9707,1.7714,20.675-2.626-2.5257-4.3739-5.8051-6.078-9.0255-.8947-1.6908-1.7909-3.3846-2.5213-5.1526-1.1957-2.8941-1.9338-5.9528-2.6673-8.9972-1.0274-4.2644-2.0621-8.6012-1.834-12.9817.1592-3.0586.9658-6.0758,2.3103-8.8253.7518-1.5374,3.1137-6.4246,5.1122-5.9601-.5102.9648-1.2562,1.8593-1.5174,2.944Z"/>
        <path class="cls-9" d="M182.7691,306.4952c5.2984.072,10.625.6508,15.8775-.049s10.5928-2.8983,13.6561-7.2219c1.465-2.0677,2.3248-4.4905,3.409-6.7809,1.3009-2.7481,2.9424-5.3331,4.856-7.696,2.0067-2.4779,4.3474-4.7684,5.6424-7.6822,1.4033-3.1575,1.4372-6.7222,1.9135-10.1445.7253-5.2107,2.5371-10.2676,5.2858-14.7532,1.0554-1.7224,2.5359-3.5268,4.5544-3.6055-3.6185,11.1806-.5246,24.0878-5.8977,34.5391-3.4337,6.6788-9.8137,11.2696-16.0746,15.4166-3.2352,2.1428-6.502,4.2379-9.799,6.2843"/>
        <path class="cls-9" d="M257.3479,272.762c-.7086,3.3098-2.6527,6.2008-4.5564,8.9996-1.7247,2.5357-3.4956,5.1204-5.9524,6.9556,4.6659-2.4762,8.1529-6.6567,11.4846-10.7559,1.8613-2.2901,6.3371-7.4562,3.9478-10.5944-3.1618-4.1528-4.5109,3.4674-4.9235,5.395Z"/>
        <path class="cls-9" d="M189.7793,318.6469c7.1055,7.3149,19.2173,9.1329,28.1666,4.2436,4.3418-2.372,8.0667-6.159,12.9222-7.1085,1.6921-.3309,3.4321-.2917,5.1555-.2401.9833.0294,1.989.0668,2.9047.4263,1.2168.4777,2.1527,1.4772,2.9233,2.5331,2.4386,3.3409,3.6176,7.6843,2.7431,11.7271s-3.9496,7.6448-7.9417,8.7274c-1.6928.4591-3.4699.4738-5.2238.4854-4.7439.0315-9.4878.0631-14.2317.0946-2.841.0189-5.7098.035-8.4853-.5716-3.93-.8589-7.489-2.9267-10.7902-5.2256-4.6728-3.2541-9.0338-7.0953-12.1317-11.873-2.3218-3.5808-6.1276-11.4186-3.8725-15.6521,2.9767,3.8861,4.2899,8.7566,7.8615,12.4335Z"/>
      </g>
      <path class="cls-30" d="M152.2523,284.8222c-.1366.1489-.2821.3212-.2716.523.011.2108.1863.3689.3087.5408.6376.8953-.1001,2.3383.63,3.1599.8102.9117,2.462.0655,3.48.7374.4996.3298.7151.944,1.0837,1.4157.6481.8296,1.7247,1.1719,2.7342,1.4701,2.2876.6757,4.5751,1.3515,6.8627,2.0272.3442.1017.6968.2044,1.0551.1833.4509-.0266.8897-.2485,1.3361-.1795.5791.0895.9661.6256,1.4562.9468,1.0243.6714,2.3968.3464,3.5132-.1572s2.2269-1.1788,3.4514-1.1517c.8092.0179,1.5986.3478,2.4055.2832.9175-.0734,1.7684-.7015,2.1089-1.5565.1496-.3755.214-.7993.4761-1.107.2201-.2584.5475-.3955.8177-.6011,1.3036-.9916.8638-3.0221.2964-4.5586-.1117-.3026-.2412-.6275-.5164-.7957-.2913-.1781-.6604-.1301-.9989-.1744-.9556-.1251-1.6223-.969-2.3949-1.5453s-2.0881-.7856-2.5355.068c-.8261-.4672-1.7858-.6949-2.7337-.6485-.6971-1.8857-2.098-3.5019-3.8656-4.4598-.9881-.5355-2.2043-.8638-3.2256-.3948-1.1324.52-1.6812,1.8477-2.7384,2.5074-.6271.3913-1.3831.5149-2.1204.5682-2.0202.1461-4.1995-.9051-6.0891-.5081-1.8269.3838-3.3282,2.1018-4.5258,3.4072Z"/>
      <g>
        <path class="cls-22" d="M162.5193,286.8024c1.2497-2.5713,3.0686-4.8292,5.3139-6.5988.1263-.0995-.0517-.2753-.1768-.1768-2.2599,1.7811-4.0952,4.0615-5.353,6.6494-.07.1441.1455.271.2159.1262h0Z"/>
        <path class="cls-22" d="M168.465,287.5454c.7382-2.1022,1.066-4.3271.9663-6.5529-.0072-.1602-.2572-.1611-.25,0,.0988,2.2057-.2258,4.4033-.9574,6.4865-.0534.1521.188.2175.2411.0665h0Z"/>
        <path class="cls-22" d="M172.7593,286.6436c.059-2.4078-.6969-4.79-2.1382-6.7201-.0951-.1274-.3123-.0029-.2159.1262,1.4174,1.8981,2.1621,4.2253,2.1041,6.594-.0039.1609.2461.1609.25,0h0Z"/>
        <path class="cls-22" d="M170.6572,280.0235c1.4595,1.118,2.6725,2.5351,3.5601,4.1444.0777.1409.2937.0149.2159-.1262-.9095-1.6491-2.1552-3.0893-3.6498-4.2341-.1277-.0978-.2523.1193-.1262.2159h0Z"/>
        <path class="cls-22" d="M162.5565,283.8025c1.2572-1.8171,3.0065-3.2551,5.0268-4.1476.1469-.0649.0198-.2804-.1262-.2159-2.0601.9101-3.8356,2.3859-5.1165,4.2373-.0918.1326.1248.2578.2159.1262h0Z"/>
        <path class="cls-22" d="M168.1262,279.1823l.1274.2501c.0138.027.0462.0496.0747.0574.0299.0082.0698.0045.0963-.0126.0267-.0172.0502-.0428.0574-.0747.0077-.0339.0033-.0652-.0126-.0963l-.1274-.2501c-.0138-.027-.0462-.0496-.0747-.0574-.0299-.0082-.0698-.0045-.0963.0126-.0267.0172-.0502.0428-.0574.0747-.0077.0339-.0033.0652.0126.0963h0Z"/>
        <path class="cls-22" d="M169.5449,279.5162c.172-.3172.3948-.5846.6775-.8137.0525-.0425.0442-.1325,0-.1768-.0519-.0519-.1242-.0427-.1768,0-.2925.2371-.5372.5334-.7166.8643-.0322.0593-.0147.1362.0448.171.057.0333.1387.0147.171-.0448h0Z"/>
        <path class="cls-22" d="M166.7638,284.3815c.4707-1.281.9866-2.5447,1.5475-3.7889.0656-.1455-.1498-.2728-.2159-.1262-.5698,1.2638-1.0945,2.5474-1.5727,3.8486-.0556.1512.1859.2165.2411.0665h0Z"/>
        <path class="cls-22" d="M169.7416,281.1593c.521,1.6992.8069,3.4575.8492,5.2344.0038.1606.2538.1612.25,0-.0428-1.7981-.3309-3.5812-.8581-5.3008-.047-.1534-.2884-.088-.2411.0665h0Z"/>
        <path class="cls-22" d="M160.4655,283.1247c-.6156-.0145-1.1812.498-1.2172,1.115-.0364.623.4872,1.1787,1.0945,1.2355.1601.015.1591-.2351,0-.25-.4772-.0446-.8734-.5076-.8445-.9855.0293-.484.4924-.8762.9672-.865.1609.0038.1609-.2462,0-.25h0Z"/>
        <path class="cls-22" d="M160.7964,285.2244c-.3708.0657-.6566.345-.7978.6855-.1548.3734-.115.7808.0703,1.1359.4583.8783,1.4909,1.12,2.382,1.293.1572.0305.2245-.2104.0665-.2411-.7743-.1503-1.6748-.3264-2.1455-1.0317-.1951-.2924-.281-.6413-.1722-.9823.0988-.3096.3376-.5606.6632-.6183.1581-.028.0911-.269-.0665-.2411h0Z"/>
        <path class="cls-22" d="M162.6509,288.3549c-.2189.4731.0183.9563.3905,1.2752.385.3299.8972.4772,1.3967.5037,1.0093.0535,2.0173-.4225,2.5943-1.2541.0919-.1325-.1247-.2576-.2159-.1262-.4827.6956-1.3075,1.108-2.1486,1.133-.4046.012-.8367-.0606-1.1942-.2581-.3814-.2107-.8236-.6795-.607-1.1474.0671-.1451-.1483-.2722-.2159-.1262h0Z"/>
        <path class="cls-22" d="M166.5816,289.2469c.3278.4836.8026.8249,1.3187,1.0864.5539.2806,1.1752.4816,1.8028.4485,1.0253-.0541,2.042-.9118,1.8374-2.0128-.0293-.158-.2703-.0911-.2411.0665.0868.4675-.1246.9166-.4635,1.2327-.3748.3496-.871.4865-1.3761.4647-.5279-.0228-1.0427-.2092-1.5064-.4532-.4487-.2361-.8681-.5345-1.1558-.9588-.0898-.1324-.3065-.0075-.2159.1262h0Z"/>
        <path class="cls-22" d="M171.2719,288.8046c.1395.5719.7924.719,1.3023.7504.7389.0455,1.5323.0231,2.2277-.2559.591-.2371,1.0556-.662,1.2827-1.2635.203-.5379.1579-1.1408-.2197-1.5882-.1039-.1231-.28.0545-.1768.1768.3385.4011.3257.96.1241,1.4221-.2286.5239-.6768.8764-1.2095,1.0617-.5856.2037-1.2151.2243-1.829.2051-.4354-.0136-1.1334-.0538-1.2605-.575-.0381-.1562-.2792-.0901-.2411.0665h0Z"/>
        <path class="cls-22" d="M175.5011,286.8726c.4603.1483.9885.0031,1.3255-.3399.3449-.3511.4289-.8827.2493-1.3357-.1019-.2571-.2739-.4751-.5083-.6235-.1363-.0863-.2619.1299-.1262.2159.4182.2649.6056.8582.3888,1.3102-.2193.4571-.7849.6859-1.2626.532-.1535-.0494-.2192.1919-.0665.2411h0Z"/>
      </g>
    </g>
  </g>
</svg>